<svg xmlns="http://www.w3.org/2000/svg" viewBox="0 0 900 480" font-family="Helvetica, Arial, sans-serif" font-size="12">
<rect width="900" height="480" fill="#fcfcfb"/>
<text x="70" y="24" font-size="14" font-weight="600" fill="#0b0b0b">fib-golf points by ELF size</text>
<line x1="70" x2="870" y1="420.0" y2="420.0" stroke="#e6e5e1"/>
<text x="62" y="424.0" text-anchor="end" fill="#52514e">0</text>
<line x1="70" x2="870" y1="327.5" y2="327.5" stroke="#e6e5e1"/>
<text x="62" y="331.5" text-anchor="end" fill="#52514e">2500</text>
<line x1="70" x2="870" y1="235.0" y2="235.0" stroke="#e6e5e1"/>
<text x="62" y="239.0" text-anchor="end" fill="#52514e">5000</text>
<line x1="70" x2="870" y1="142.5" y2="142.5" stroke="#e6e5e1"/>
<text x="62" y="146.5" text-anchor="end" fill="#52514e">7500</text>
<line x1="70" x2="870" y1="50.0" y2="50.0" stroke="#e6e5e1"/>
<text x="62" y="54.0" text-anchor="end" fill="#52514e">10000</text>
<text x="70.0" y="438" text-anchor="middle" fill="#52514e">16 KiB</text>
<text x="170.8" y="438" text-anchor="middle" fill="#52514e">14 KiB</text>
<text x="271.6" y="438" text-anchor="middle" fill="#52514e">12 KiB</text>
<text x="372.4" y="438" text-anchor="middle" fill="#52514e">10 KiB</text>
<text x="473.1" y="438" text-anchor="middle" fill="#52514e">8 KiB</text>
<text x="573.9" y="438" text-anchor="middle" fill="#52514e">6 KiB</text>
<text x="674.7" y="438" text-anchor="middle" fill="#52514e">4 KiB</text>
<text x="775.5" y="438" text-anchor="middle" fill="#52514e">2 KiB</text>
<text x="870.0" y="438" text-anchor="middle" fill="#52514e">128 B</text>
<line x1="70" x2="870" y1="420.0" y2="420.0" stroke="#c3c2b7"/>
<text x="470.0" y="466" text-anchor="middle" fill="#52514e">bytes</text>
<path d="M70.0,420.0 L70.8,420.0 L71.6,420.0 L72.4,420.0 L73.1,420.0 L73.9,420.0 L74.7,420.0 L75.5,420.0 L76.3,420.0 L77.1,420.0 L77.9,420.0 L78.7,420.0 L79.4,420.0 L80.2,420.0 L81.0,420.0 L81.8,420.0 L82.6,420.0 L83.4,420.0 L84.2,420.0 L85.0,420.0 L85.7,420.0 L86.5,420.0 L87.3,420.0 L88.1,420.0 L88.9,420.0 L89.7,420.0 L90.5,420.0 L91.3,420.0 L92.0,420.0 L92.8,420.0 L93.6,420.0 L94.4,420.0 L95.2,420.0 L96.0,420.0 L96.8,420.0 L97.6,420.0 L98.3,420.0 L99.1,420.0 L99.9,420.0 L100.7,420.0 L101.5,420.0 L102.3,420.0 L103.1,420.0 L103.9,420.0 L104.6,420.0 L105.4,420.0 L106.2,420.0 L107.0,420.0 L107.8,420.0 L108.6,420.0 L109.4,420.0 L110.2,420.0 L110.9,420.0 L111.7,420.0 L112.5,420.0 L113.3,420.0 L114.1,420.0 L114.9,420.0 L115.7,420.0 L116.5,420.0 L117.2,420.0 L118.0,420.0 L118.8,420.0 L119.6,420.0 L120.4,420.0 L121.2,420.0 L122.0,420.0 L122.8,420.0 L123.5,420.0 L124.3,420.0 L125.1,420.0 L125.9,420.0 L126.7,420.0 L127.5,420.0 L128.3,420.0 L129.1,420.0 L129.8,420.0 L130.6,420.0 L131.4,420.0 L132.2,420.0 L133.0,420.0 L133.8,420.0 L134.6,420.0 L135.4,420.0 L136.1,420.0 L136.9,420.0 L137.7,420.0 L138.5,420.0 L139.3,420.0 L140.1,420.0 L140.9,420.0 L141.7,420.0 L142.4,420.0 L143.2,420.0 L144.0,420.0 L144.8,420.0 L145.6,420.0 L146.4,420.0 L147.2,420.0 L148.0,420.0 L148.7,420.0 L149.5,420.0 L150.3,420.0 L151.1,420.0 L151.9,420.0 L152.7,420.0 L153.5,420.0 L154.3,420.0 L155.0,420.0 L155.8,420.0 L156.6,420.0 L157.4,420.0 L158.2,420.0 L159.0,420.0 L159.8,420.0 L160.6,420.0 L161.3,420.0 L162.1,420.0 L162.9,420.0 L163.7,420.0 L164.5,420.0 L165.3,420.0 L166.1,420.0 L166.9,420.0 L167.6,420.0 L168.4,420.0 L169.2,420.0 L170.0,420.0 L170.8,420.0 L171.6,420.0 L172.4,420.0 L173.1,420.0 L173.9,420.0 L174.7,420.0 L175.5,420.0 L176.3,420.0 L177.1,420.0 L177.9,420.0 L178.7,420.0 L179.4,420.0 L180.2,420.0 L181.0,420.0 L181.8,420.0 L182.6,420.0 L183.4,420.0 L184.2,420.0 L185.0,420.0 L185.7,420.0 L186.5,420.0 L187.3,420.0 L188.1,420.0 L188.9,420.0 L189.7,420.0 L190.5,420.0 L191.3,420.0 L192.0,420.0 L192.8,420.0 L193.6,420.0 L194.4,420.0 L195.2,420.0 L196.0,420.0 L196.8,420.0 L197.6,420.0 L198.3,420.0 L199.1,420.0 L199.9,420.0 L200.7,420.0 L201.5,420.0 L202.3,420.0 L203.1,420.0 L203.9,420.0 L204.6,420.0 L205.4,420.0 L206.2,420.0 L207.0,420.0 L207.8,420.0 L208.6,420.0 L209.4,420.0 L210.2,420.0 L210.9,420.0 L211.7,420.0 L212.5,420.0 L213.3,420.0 L214.1,420.0 L214.9,420.0 L215.7,420.0 L216.5,420.0 L217.2,420.0 L218.0,420.0 L218.8,420.0 L219.6,420.0 L220.4,420.0 L221.2,420.0 L222.0,420.0 L222.8,420.0 L223.5,420.0 L224.3,420.0 L225.1,420.0 L225.9,420.0 L226.7,420.0 L227.5,420.0 L228.3,420.0 L229.1,420.0 L229.8,419.9 L230.6,419.9 L231.4,419.9 L232.2,419.9 L233.0,419.9 L233.8,419.9 L234.6,419.9 L235.4,419.9 L236.1,419.9 L236.9,419.9 L237.7,419.9 L238.5,419.9 L239.3,419.9 L240.1,419.9 L240.9,419.9 L241.7,419.9 L242.4,419.9 L243.2,419.9 L244.0,419.9 L244.8,419.9 L245.6,419.9 L246.4,419.9 L247.2,419.9 L248.0,419.9 L248.7,419.9 L249.5,419.9 L250.3,419.9 L251.1,419.9 L251.9,419.9 L252.7,419.9 L253.5,419.9 L254.3,419.9 L255.0,419.9 L255.8,419.9 L256.6,419.9 L257.4,419.9 L258.2,419.9 L259.0,419.9 L259.8,419.9 L260.6,419.9 L261.3,419.9 L262.1,419.9 L262.9,419.9 L263.7,419.9 L264.5,419.9 L265.3,419.9 L266.1,419.9 L266.9,419.9 L267.6,419.9 L268.4,419.9 L269.2,419.9 L270.0,419.9 L270.8,419.9 L271.6,419.9 L272.4,419.9 L273.1,419.9 L273.9,419.9 L274.7,419.9 L275.5,419.9 L276.3,419.9 L277.1,419.9 L277.9,419.9 L278.7,419.9 L279.4,419.9 L280.2,419.9 L281.0,419.9 L281.8,419.9 L282.6,419.9 L283.4,419.9 L284.2,419.9 L285.0,419.9 L285.7,419.9 L286.5,419.9 L287.3,419.9 L288.1,419.9 L288.9,419.9 L289.7,419.9 L290.5,419.9 L291.3,419.9 L292.0,419.9 L292.8,419.9 L293.6,419.9 L294.4,419.9 L295.2,419.9 L296.0,419.9 L296.8,419.9 L297.6,419.9 L298.3,419.9 L299.1,419.9 L299.9,419.9 L300.7,419.9 L301.5,419.9 L302.3,419.9 L303.1,419.9 L303.9,419.9 L304.6,419.8 L305.4,419.8 L306.2,419.8 L307.0,419.8 L307.8,419.8 L308.6,419.8 L309.4,419.8 L310.2,419.8 L310.9,419.8 L311.7,419.8 L312.5,419.8 L313.3,419.8 L314.1,419.8 L314.9,419.8 L315.7,419.8 L316.5,419.8 L317.2,419.8 L318.0,419.8 L318.8,419.8 L319.6,419.8 L320.4,419.8 L321.2,419.8 L322.0,419.8 L322.8,419.8 L323.5,419.8 L324.3,419.8 L325.1,419.8 L325.9,419.8 L326.7,419.8 L327.5,419.8 L328.3,419.8 L329.1,419.8 L329.8,419.8 L330.6,419.7 L331.4,419.7 L332.2,419.7 L333.0,419.7 L333.8,419.7 L334.6,419.7 L335.4,419.7 L336.1,419.7 L336.9,419.7 L337.7,419.7 L338.5,419.7 L339.3,419.7 L340.1,419.7 L340.9,419.7 L341.7,419.7 L342.4,419.7 L343.2,419.7 L344.0,419.7 L344.8,419.7 L345.6,419.7 L346.4,419.7 L347.2,419.7 L348.0,419.7 L348.7,419.7 L349.5,419.7 L350.3,419.7 L351.1,419.7 L351.9,419.7 L352.7,419.7 L353.5,419.7 L354.3,419.7 L355.0,419.7 L355.8,419.7 L356.6,419.7 L357.4,419.7 L358.2,419.6 L359.0,419.6 L359.8,419.6 L360.6,419.6 L361.3,419.6 L362.1,419.6 L362.9,419.6 L363.7,419.6 L364.5,419.6 L365.3,419.6 L366.1,419.6 L366.9,419.6 L367.6,419.6 L368.4,419.6 L369.2,419.6 L370.0,419.6 L370.8,419.6 L371.6,419.6 L372.4,419.6 L373.1,419.6 L373.9,419.6 L374.7,419.6 L375.5,419.6 L376.3,419.6 L377.1,419.6 L377.9,419.5 L378.7,419.5 L379.4,419.5 L380.2,419.5 L381.0,419.5 L381.8,419.5 L382.6,419.5 L383.4,419.5 L384.2,419.5 L385.0,419.5 L385.7,419.5 L386.5,419.5 L387.3,419.5 L388.1,419.5 L388.9,419.4 L389.7,419.4 L390.5,419.4 L391.3,419.4 L392.0,419.4 L392.8,419.4 L393.6,419.4 L394.4,419.4 L395.2,419.4 L396.0,419.4 L396.8,419.4 L397.6,419.4 L398.3,419.4 L399.1,419.4 L399.9,419.4 L400.7,419.4 L401.5,419.4 L402.3,419.3 L403.1,419.3 L403.9,419.3 L404.6,419.3 L405.4,419.3 L406.2,419.3 L407.0,419.3 L407.8,419.3 L408.6,419.3 L409.4,419.3 L410.2,419.3 L410.9,419.3 L411.7,419.3 L412.5,419.3 L413.3,419.3 L414.1,419.2 L414.9,419.2 L415.7,419.2 L416.5,419.2 L417.2,419.2 L418.0,419.2 L418.8,419.2 L419.6,419.2 L420.4,419.2 L421.2,419.1 L422.0,419.1 L422.8,419.1 L423.5,419.1 L424.3,419.1 L425.1,419.1 L425.9,419.1 L426.7,419.1 L427.5,419.1 L428.3,419.1 L429.1,419.1 L429.8,419.0 L430.6,419.0 L431.4,419.0 L432.2,419.0 L433.0,419.0 L433.8,419.0 L434.6,419.0 L435.4,419.0 L436.1,419.0 L436.9,419.0 L437.7,419.0 L438.5,418.9 L439.3,418.9 L440.1,418.9 L440.9,418.9 L441.7,418.9 L442.4,418.9 L443.2,418.9 L444.0,418.9 L444.8,418.9 L445.6,418.8 L446.4,418.8 L447.2,418.8 L448.0,418.8 L448.7,418.8 L449.5,418.8 L450.3,418.7 L451.1,418.7 L451.9,418.7 L452.7,418.7 L453.5,418.7 L454.3,418.7 L455.0,418.7 L455.8,418.7 L456.6,418.6 L457.4,418.6 L458.2,418.6 L459.0,418.6 L459.8,418.6 L460.6,418.6 L461.3,418.6 L462.1,418.5 L462.9,418.5 L463.7,418.5 L464.5,418.5 L465.3,418.5 L466.1,418.4 L466.9,418.4 L467.6,418.4 L468.4,418.4 L469.2,418.4 L470.0,418.4 L470.8,418.3 L471.6,418.3 L472.4,418.3 L473.1,418.3 L473.9,418.3 L474.7,418.3 L475.5,418.2 L476.3,418.2 L477.1,418.2 L477.9,418.2 L478.7,418.1 L479.4,418.1 L480.2,418.1 L481.0,418.1 L481.8,418.1 L482.6,418.1 L483.4,418.0 L484.2,418.0 L485.0,418.0 L485.7,418.0 L486.5,418.0 L487.3,417.9 L488.1,417.9 L488.9,417.9 L489.7,417.9 L490.5,417.9 L491.3,417.8 L492.0,417.8 L492.8,417.8 L493.6,417.7 L494.4,417.7 L495.2,417.7 L496.0,417.7 L496.8,417.6 L497.6,417.6 L498.3,417.6 L499.1,417.6 L499.9,417.6 L500.7,417.5 L501.5,417.5 L502.3,417.5 L503.1,417.4 L503.9,417.4 L504.6,417.4 L505.4,417.4 L506.2,417.3 L507.0,417.3 L507.8,417.3 L508.6,417.2 L509.4,417.2 L510.2,417.2 L510.9,417.2 L511.7,417.1 L512.5,417.1 L513.3,417.0 L514.1,417.0 L514.9,417.0 L515.7,417.0 L516.5,416.9 L517.2,416.9 L518.0,416.9 L518.8,416.8 L519.6,416.8 L520.4,416.7 L521.2,416.7 L522.0,416.7 L522.8,416.7 L523.5,416.6 L524.3,416.6 L525.1,416.6 L525.9,416.5 L526.7,416.5 L527.5,416.4 L528.3,416.4 L529.1,416.4 L529.8,416.3 L530.6,416.3 L531.4,416.2 L532.2,416.2 L533.0,416.2 L533.8,416.1 L534.6,416.1 L535.4,416.0 L536.1,416.0 L536.9,415.9 L537.7,415.9 L538.5,415.9 L539.3,415.8 L540.1,415.8 L540.9,415.7 L541.7,415.7 L542.4,415.6 L543.2,415.6 L544.0,415.5 L544.8,415.5 L545.6,415.4 L546.4,415.4 L547.2,415.3 L548.0,415.3 L548.7,415.2 L549.5,415.2 L550.3,415.2 L551.1,415.1 L551.9,415.0 L552.7,415.0 L553.5,414.9 L554.3,414.9 L555.0,414.8 L555.8,414.7 L556.6,414.7 L557.4,414.6 L558.2,414.6 L559.0,414.5 L559.8,414.5 L560.6,414.4 L561.3,414.3 L562.1,414.3 L562.9,414.2 L563.7,414.2 L564.5,414.1 L565.3,414.0 L566.1,414.0 L566.9,413.9 L567.6,413.9 L568.4,413.8 L569.2,413.7 L570.0,413.6 L570.8,413.6 L571.6,413.5 L572.4,413.5 L573.1,413.4 L573.9,413.3 L574.7,413.2 L575.5,413.2 L576.3,413.1 L577.1,413.0 L577.9,412.9 L578.7,412.9 L579.4,412.8 L580.2,412.7 L581.0,412.6 L581.8,412.6 L582.6,412.5 L583.4,412.4 L584.2,412.3 L585.0,412.2 L585.7,412.2 L586.5,412.0 L587.3,412.0 L588.1,411.9 L588.9,411.8 L589.7,411.7 L590.5,411.6 L591.3,411.5 L592.0,411.5 L592.8,411.3 L593.6,411.3 L594.4,411.2 L595.2,411.0 L596.0,411.0 L596.8,410.9 L597.6,410.8 L598.3,410.7 L599.1,410.6 L599.9,410.5 L600.7,410.4 L601.5,410.3 L602.3,410.2 L603.1,410.0 L603.9,409.9 L604.6,409.8 L605.4,409.8 L606.2,409.6 L607.0,409.5 L607.8,409.4 L608.6,409.3 L609.4,409.2 L610.2,409.0 L610.9,408.9 L611.7,408.8 L612.5,408.7 L613.3,408.6 L614.1,408.5 L614.9,408.3 L615.7,408.2 L616.5,408.1 L617.2,407.9 L618.0,407.8 L618.8,407.7 L619.6,407.6 L620.4,407.4 L621.2,407.3 L622.0,407.2 L622.8,407.0 L623.5,406.9 L624.3,406.8 L625.1,406.6 L625.9,406.5 L626.7,406.3 L627.5,406.2 L628.3,406.0 L629.1,405.9 L629.8,405.7 L630.6,405.6 L631.4,405.4 L632.2,405.2 L633.0,405.1 L633.8,404.9 L634.6,404.8 L635.4,404.6 L636.1,404.4 L636.9,404.3 L637.7,404.1 L638.5,403.9 L639.3,403.8 L640.1,403.6 L640.9,403.4 L641.7,403.2 L642.4,403.1 L643.2,402.9 L644.0,402.7 L644.8,402.5 L645.6,402.3 L646.4,402.1 L647.2,401.9 L648.0,401.7 L648.7,401.5 L649.5,401.4 L650.3,401.1 L651.1,400.9 L651.9,400.7 L652.7,400.5 L653.5,400.3 L654.3,400.1 L655.0,399.9 L655.8,399.7 L656.6,399.5 L657.4,399.2 L658.2,399.0 L659.0,398.8 L659.8,398.6 L660.6,398.3 L661.3,398.1 L662.1,397.9 L662.9,397.6 L663.7,397.4 L664.5,397.1 L665.3,396.9 L666.1,396.7 L666.9,396.4 L667.6,396.1 L668.4,395.9 L669.2,395.6 L670.0,395.4 L670.8,395.1 L671.6,394.8 L672.4,394.6 L673.1,394.3 L673.9,394.0 L674.7,393.7 L675.5,393.5 L676.3,393.2 L677.1,392.9 L677.9,392.6 L678.7,392.3 L679.4,392.0 L680.2,391.7 L681.0,391.4 L681.8,391.1 L682.6,390.8 L683.4,390.5 L684.2,390.1 L685.0,389.8 L685.7,389.5 L686.5,389.2 L687.3,388.8 L688.1,388.5 L688.9,388.2 L689.7,387.8 L690.5,387.5 L691.3,387.1 L692.0,386.8 L692.8,386.4 L693.6,386.1 L694.4,385.7 L695.2,385.3 L696.0,385.0 L696.8,384.6 L697.6,384.2 L698.3,383.9 L699.1,383.4 L699.9,383.1 L700.7,382.7 L701.5,382.3 L702.3,381.9 L703.1,381.4 L703.9,381.0 L704.6,380.6 L705.4,380.2 L706.2,379.8 L707.0,379.3 L707.8,378.9 L708.6,378.4 L709.4,378.0 L710.2,377.6 L710.9,377.1 L711.7,376.6 L712.5,376.2 L713.3,375.7 L714.1,375.2 L714.9,374.7 L715.7,374.3 L716.5,373.8 L717.2,373.3 L718.0,372.8 L718.8,372.3 L719.6,371.8 L720.4,371.2 L721.2,370.7 L722.0,370.2 L722.8,369.7 L723.5,369.1 L724.3,368.6 L725.1,368.0 L725.9,367.5 L726.7,366.9 L727.5,366.3 L728.3,365.8 L729.1,365.2 L729.8,364.6 L730.6,364.0 L731.4,363.4 L732.2,362.8 L733.0,362.2 L733.8,361.5 L734.6,360.9 L735.4,360.3 L736.1,359.7 L736.9,359.0 L737.7,358.4 L738.5,357.7 L739.3,357.0 L740.1,356.4 L740.9,355.7 L741.7,355.0 L742.4,354.3 L743.2,353.6 L744.0,352.8 L744.8,352.1 L745.6,351.4 L746.4,350.7 L747.2,349.9 L748.0,349.2 L748.7,348.4 L749.5,347.7 L750.3,346.9 L751.1,346.1 L751.9,345.3 L752.7,344.5 L753.5,343.7 L754.3,342.9 L755.0,342.0 L755.8,341.2 L756.6,340.4 L757.4,339.5 L758.2,338.6 L759.0,337.8 L759.8,336.9 L760.6,336.0 L761.3,335.1 L762.1,334.2 L762.9,333.3 L763.7,332.3 L764.5,331.4 L765.3,330.5 L766.1,329.5 L766.9,328.5 L767.6,327.5 L768.4,326.5 L769.2,325.5 L770.0,324.5 L770.8,323.5 L771.6,322.5 L772.4,321.4 L773.1,320.4 L773.9,319.3 L774.7,318.2 L775.5,317.1 L776.3,316.0 L777.1,314.9 L777.9,313.8 L778.7,312.7 L779.4,311.5 L780.2,310.3 L781.0,309.1 L781.8,308.0 L782.6,306.8 L783.4,305.6 L784.2,304.3 L785.0,303.1 L785.7,301.8 L786.5,300.6 L787.3,299.3 L788.1,298.0 L788.9,296.7 L789.7,295.3 L790.5,294.0 L791.3,292.7 L792.0,291.3 L792.8,289.9 L793.6,288.5 L794.4,287.1 L795.2,285.7 L796.0,284.2 L796.8,282.8 L797.6,281.3 L798.3,279.8 L799.1,278.3 L799.9,276.8 L800.7,275.3 L801.5,273.7 L802.3,272.1 L803.1,270.6 L803.9,269.0 L804.6,267.3 L805.4,265.7 L806.2,264.0 L807.0,262.4 L807.8,260.7 L808.6,259.0 L809.4,257.3 L810.2,255.5 L810.9,253.8 L811.7,252.0 L812.5,250.2 L813.3,248.4 L814.1,246.5 L814.9,244.7 L815.7,242.8 L816.5,240.8 L817.2,239.0 L818.0,237.0 L818.8,235.0 L819.6,233.0 L820.4,231.0 L821.2,229.0 L822.0,227.0 L822.8,224.9 L823.5,222.8 L824.3,220.7 L825.1,218.6 L825.9,216.4 L826.7,214.2 L827.5,212.0 L828.3,209.8 L829.1,207.5 L829.8,205.3 L830.6,203.0 L831.4,200.6 L832.2,198.3 L833.0,195.9 L833.8,193.5 L834.6,191.0 L835.4,188.6 L836.1,186.1 L836.9,183.6 L837.7,181.1 L838.5,178.5 L839.3,175.9 L840.1,173.3 L840.9,170.7 L841.7,168.0 L842.4,165.3 L843.2,162.6 L844.0,159.8 L844.8,157.0 L845.6,154.2 L846.4,151.3 L847.2,148.5 L848.0,145.5 L848.7,142.6 L849.5,139.6 L850.3,136.6 L851.1,133.6 L851.9,130.5 L852.7,127.4 L853.5,124.3 L854.3,121.1 L855.0,117.9 L855.8,114.6 L856.6,111.3 L857.4,108.1 L858.2,104.7 L859.0,101.3 L859.8,97.9 L860.6,94.4 L861.3,91.0 L862.1,87.4 L862.9,83.9 L863.7,80.3 L864.5,76.6 L865.3,72.9 L866.1,69.2 L866.9,65.5 L867.6,61.7 L868.4,57.8 L869.2,53.9 L870.0,50.0" fill="none" stroke="#2a78d6" stroke-width="2" stroke-linejoin="round"/>
<circle cx="473.1" cy="418.3" r="4" fill="#2a78d6" stroke="#fcfcfb" stroke-width="2"/>
<text x="465.1" y="410.3" text-anchor="end" fill="#0b0b0b">8192 B: 46</text>
<circle cx="674.7" cy="393.7" r="4" fill="#2a78d6" stroke="#fcfcfb" stroke-width="2"/>
<text x="666.7" y="385.7" text-anchor="end" fill="#0b0b0b">4096 B: 710</text>
<circle cx="775.5" cy="317.1" r="4" fill="#2a78d6" stroke="#fcfcfb" stroke-width="2"/>
<text x="767.5" y="309.1" text-anchor="end" fill="#0b0b0b">2048 B: 2780</text>
<circle cx="825.9" cy="216.4" r="4" fill="#2a78d6" stroke="#fcfcfb" stroke-width="2"/>
<text x="817.9" y="208.4" text-anchor="end" fill="#0b0b0b">1024 B: 5503</text>
<circle cx="851.1" cy="133.6" r="4" fill="#2a78d6" stroke="#fcfcfb" stroke-width="2"/>
<text x="843.1" y="125.6" text-anchor="end" fill="#0b0b0b">512 B: 7741</text>
<circle cx="866.5" cy="67.4" r="4" fill="#2a78d6" stroke="#fcfcfb" stroke-width="2"/>
<text x="858.5" y="59.4" text-anchor="end" fill="#0b0b0b">200 B: 9531</text>
</svg>